<svg enable-background="new 0 0 512 512" viewBox="0 0 512 512" xmlns="http://www.w3.org/2000/svg"><circle cx="256" cy="256" fill="#e6e6e6" r="256"/><g fill="none" stroke="#31a6e0" stroke-miterlimit="10" stroke-width="20"><ellipse cx="256" cy="256" rx="215.7" ry="106.5"/><ellipse cx="256" cy="256" rx="215.7" ry="106.5" transform="matrix(.5096 .8604 -.8604 .5096 345.821 -94.7195)"/><ellipse cx="256" cy="256" rx="215.7" ry="106.5" transform="matrix(-.5096 .8604 -.8604 -.5096 606.7195 166.179)"/></g><path d="m283.4 288.5h-20.4v14.3h-8.6v-14.1c-2.2 0-4.5 0-6.9-.1v14.1h-8.6v-14.3c-2 0-4.1 0-6.1-.1h-11.2l1.7-10.3s6.4.1 6.2 0c2.4 0 3.1-1.8 3.2-2.8v-38.7c-.3-1.7-1.5-3.8-4.9-3.8.1-.1-6.2 0-6.2 0v-9.2h11.9c1.8 0 3.6 0 5.5-.1v-14.1h8.6v13.8c2.3 0 4.6-.1 6.9-.1v-13.8h8.6v14.1h20.5s0 9.7 0 9.2h-35.7v17.8h29v8.7h-29v18.6h34z" fill="#103342"/></svg>